<svg xmlns="http://www.w3.org/2000/svg" xml:space="preserve" width="2000" height="560" data-id="lg_ufnQKJqsrGY0lwjRQf" data-version="1" viewBox="0 0 2000 560"><g data-padding="20"><path fill="#efcff4" d="M997.864 117.45c-88.582.05-160.38 71.832-160.458 160.414.077 88.582 71.876 160.364 160.458 160.413 88.582-.05 160.381-71.83 160.458-160.413-.077-88.582-71.876-160.364-160.458-160.413m9.724 239.738v26.682h-21.256v-25.054c-16.326-.543-32.652-5.2-42.014-11.397l7.01-24.422a81.4 81.4 0 0 0 40.431 11.443c16.326 0 27.497-8.05 27.497-20.488 0-11.667-9.045-19.174-28.266-26.23-27.226-9.814-44.864-22.25-44.864-46.355 0-22.296 15.558-39.437 41.744-44.095v-25.417h21.255v24.106c16.326.542 27.497 4.431 35.773 8.592l-6.965 23.834c-6.24-2.849-17.637-8.819-35.275-8.819-18.135 0-24.648 9.316-24.648 18.135 0 10.628 9.362 16.598 31.387 25.417 29.035 10.9 42.014 24.874 42.014 47.939 0 22.07-15.332 41.516-43.868 46.174"/><path fill="#efcff4" d="M997.864 90.814c-103.262.1-186.95 83.788-187.05 187.05 0 103.113 83.893 187.05 187.05 187.05s187.05-83.893 187.05-187.05c-.099-103.262-83.787-186.95-187.05-187.05m0 355.92c-93.204-.149-168.721-75.666-168.87-168.87.149-93.204 75.666-168.721 168.87-168.87 93.204.149 168.721 75.666 168.87 168.87-.149 93.204-75.666 168.721-168.87 168.87"/><path fill="#b10dc9" d="M1262.765 270.53a51 51 0 0 0-8.39-3.558c-5.591-1.906-11.247-3.177-16.839-4.384-11.247-2.287-22.558-3.813-33.807-5.147-22.622-2.732-45.244-4.067-67.866-5.465q-26.69-1.526-53.507-2.16 19.127-20.844 37.747-42.386 22.114-26.054 42.259-53.696a407 407 0 0 0 19.126-28.596q4.576-7.372 8.261-15.442 1.907-4.068 3.178-8.706.509-2.352.636-5.275a12.7 12.7 0 0 0-.763-3.812c-.826-1.907-.318-.827-1.78-2.86-4.893-3.813-8.896-2.033-11.883-1.525q-4.575 1.462-8.452 3.43c-5.337 2.67-10.167 5.72-14.996 8.897q-14.298 9.532-27.579 20.209c-17.92 13.98-34.824 29.104-51.792 44.1a1779 1779 0 0 0-45.752 42.132 1779 1779 0 0 0-7.88-129.953 420 420 0 0 0-5.21-33.806q-1.653-8.452-4.386-16.84a51 51 0 0 0-3.558-8.452c-1.526-2.414-3.622-6.545-9.024-7.307-7.18.635-8.26 4.702-10.295 7.116q-2.414 4.195-3.939 8.39a147 147 0 0 0-5.083 16.775 413 413 0 0 0-6.673 33.68q-5.401 33.933-8.071 67.93-2.097 28.343-3.304 56.557a1735 1735 0 0 0-39.335-36.221c-16.967-14.997-33.933-30.057-51.79-44.101a394 394 0 0 0-27.58-20.271q-7.053-4.83-14.997-8.833-3.876-2.035-8.451-3.433c-1.653-.38-3.177-.825-5.211-.825-.7-.128-2.415.127-3.813.636-1.525.507-1.462.762-2.287 1.206-3.177 3.178-2.86 5.084-3.177 7.181 0 2.034.38 3.622.635 5.339q1.334 4.638 3.177 8.642 3.686 8.133 8.261 15.505a400 400 0 0 0 19.064 28.596q20.208 27.642 42.322 53.696 18.556 21.415 37.747 42.323-26.69.634-53.506 2.16c-22.623 1.398-45.246 2.733-67.805 5.402q-16.967 1.906-33.806 5.21-8.452 1.716-16.84 4.385-4.258 1.334-8.452 3.558c-2.542 1.716-6.609 3.179-7.371 9.469.635 6.291 4.703 7.943 7.18 9.787q4.195 2.478 8.325 3.939 8.388 3.177 16.776 5.083c11.185 2.86 22.496 4.894 33.68 6.737q33.933 5.4 67.93 8.07 28.343 2.097 56.62 3.305a1722 1722 0 0 0-36.22 39.335c-15.061 16.966-30.121 33.87-44.165 51.727q-10.676 13.345-20.271 27.642-4.767 7.054-8.833 14.997-1.907 3.876-3.433 8.452c-.38 1.652-.825 3.177-.825 5.21-.128.7.19 2.415.636 3.813.762 1.843.317.827 1.715 2.86 4.893 3.876 8.96 2.351 12.073 1.906q4.576-1.271 8.643-3.177 8.134-3.622 15.506-8.261a400 400 0 0 0 28.596-19.064q27.706-20.208 53.633-42.258 18.3-15.887 36.22-32.218c.763 16.14 1.463 32.218 2.734 48.295q2.859 34.06 8.07 67.867c1.906 11.312 3.94 22.56 6.673 33.744q2.032 8.45 5.083 16.776 1.589 4.194 4.003 8.389c1.843 2.414 3.496 6.48 9.787 7.116 6.227-.826 7.753-4.829 9.468-7.308 1.525-2.86 2.542-5.656 3.558-8.451 1.907-5.593 3.178-11.185 4.386-16.84q3.24-16.84 5.146-33.806c2.67-22.56 4.068-45.182 5.402-67.805q1.526-26.753 2.224-53.506 20.907 19.191 42.322 37.747a915 915 0 0 0 53.76 42.195 400 400 0 0 0 28.596 19.128q7.308 4.574 15.442 8.26 4.004 1.907 8.642 3.178c1.716.253 3.305.635 5.338.635.7.063 2.415-.254 3.813-.762 1.588-.572 1.398-.827 2.224-1.271 3.177-3.178 2.796-5.084 2.923-7.181q-.063-2.86-.762-5.211a57 57 0 0 0-3.432-8.451q-4.067-7.817-8.897-14.998a394 394 0 0 0-20.207-27.578c-13.98-17.857-29.104-34.825-44.1-51.791a1729 1729 0 0 0-36.287-39.4q28.279-1.143 56.62-3.24 34.061-2.86 67.867-8.07c11.312-1.907 22.56-3.94 33.745-6.737q8.388-1.969 16.775-5.083 4.195-1.525 8.325-3.94c2.478-1.652 6.546-3.94 7.117-9.341-.761-7.117-4.829-8.007-7.307-9.913M1077.844 165.87q25.8-21.924 53.189-41.94a394 394 0 0 1 28.024-18.684q7.244-4.448 14.616-7.816 3.812-1.652 7.37-2.606c1.907-.635 3.75-.38 4.258-.253.19.318.763 1.143.318.826-.254.063-.063-.318-.19.381q0 1.335-.573 3.114-1.08 3.558-2.922 7.116-3.686 7.245-8.39 14.172a394 394 0 0 1-19.825 27.007 1156 1156 0 0 1-43.846 51.345 1786 1786 0 0 1-46.707 50.647q-16.014-.19-32.092-.19 0-20.526-.444-41.052 23.194-21.479 47.151-42.067M961.236 296.078l.127 6.99c-8.77-.128-17.54 0-26.309-.191q8.071-8.642 16.268-17.158 4.894 5.275 9.914 10.359m22.686 22.685 5.083 4.83-12.01 11.756-.064-16.713Zm32.09 0 14.298-.318-.635 23.703q-9.405-9.214-18.746-18.556Zm15.125-37.237V280Zl-14.616 14.869-6.926 6.799h-19.128l-6.99-6.672-6.736-6.926-.063-9.532.126-20.97 1.08-1.208-1.08 1.144.064-9.723q5.083-.064 9.977-.254l-8.896 8.897 9.213-8.897 12.773-.254-12.518.063 12.518-12.01 12.582 12.01-12.582-.063q6.482.063 12.837.254l9.277 8.897-8.96-8.897 17.412.445.381 17.347-8.896-8.895 8.896 9.213.318 12.837-.127-12.582 7.054 7.244Zm17.412 4.193q8.26 8.515 16.395 17.158c-10.993.254-21.988.127-32.917.19Zm-87.504-12.074q-11.63-11.629-23.067-23.385l23.639-.636q-.381 12.075-.572 24.021m15.886-24.72q0-16.903.255-33.87 11.375 10.612 22.496 21.479l-12.52 12.328Zm23.513-12.39q14.362-13.981 29.041-27.58.7 20.017 1.016 40.035l-17.602-.128Zm30.693 30.565-.064-17.602q15.57.318 31.074.761-11.819 12.075-23.83 24.15ZM979.92 144.71c1.398-22.495 2.732-44.99 5.4-67.295q1.843-16.777 5.084-33.108 1.59-8.26 4.068-15.886 1.207-3.94 2.986-7.181c.762-2.16 3.368-3.622 2.16-3.369.51-.38 2.035 1.08 3.368 3.178q1.907 3.24 3.305 7.054 2.86 7.625 4.83 15.886 4.003 16.268 6.545 33.044 5.338 33.426 8.07 67.296 2.415 31.456 3.623 63.038-14.807 14.235-29.295 28.787-11.375-11.375-22.877-22.56.762-34.44 2.733-68.883m-89.728 53.823c-14.934-16.84-29.931-33.68-43.847-51.345a394 394 0 0 1-19.827-27.008q-4.703-6.99-8.324-14.17a51 51 0 0 1-2.987-7.117q-.508-1.78-.508-3.115c-.19-.317 0-.635 0-.89 2.033-1.015 7.562.7 11.692 2.543q7.435 3.495 14.616 7.816c9.532 5.72 18.873 12.138 27.96 18.746q27.452 19.954 53.38 41.94 20.652 17.794 40.669 36.222-.953 23.45-1.398 46.898-12.391 0-24.656.126-23.893-24.845-46.77-50.646m-25.419 101.547c-22.495-1.398-44.99-2.732-67.359-5.337q-16.713-1.843-33.108-5.084-8.197-1.653-15.886-4.13-3.877-1.272-7.117-2.924c-2.224-1.017-3.686-2.923-3.432-2.605-.381.318 1.08-1.78 3.177-2.923q3.24-1.906 7.117-3.368 7.626-2.796 15.824-4.83 16.268-3.94 33.043-6.545 33.426-5.274 67.36-8.007 27.135-2.033 54.46-3.178 15.886 17.223 32.154 34.126-8.77 8.705-17.348 17.602-34.57-.762-68.885-2.797m53.824 89.792c-16.904 14.869-33.743 29.866-51.345 43.783a388 388 0 0 1-27.07 19.827q-6.928 4.703-14.108 8.324-3.623 1.907-7.118 2.987c-2.097.699-4.067.508-4.194.572-.254-.381-.762-1.017-.318-.762.191 0 0 .317 0-.382q.064-1.398.445-3.177.954-3.622 2.67-7.371 3.367-7.435 7.752-14.616c5.718-9.532 12.137-18.874 18.746-27.96q19.89-27.454 41.94-53.38c11.757-13.789 24.02-27.324 36.222-40.67q19.763.826 39.59 1.208l.761 31.074a1735 1735 0 0 1-43.973 40.543m107.14 25.8q-2.733 33.87-8.008 67.358c-1.842 11.121-3.812 22.242-6.545 33.044q-2.033 8.199-4.83 15.824-1.461 3.813-3.368 7.053c-1.08 2.161-3.24 3.623-2.922 3.178.254.318-1.652-1.208-2.67-3.368a44.4 44.4 0 0 1-2.986-7.117 140 140 0 0 1-4.067-15.887q-3.24-16.458-5.084-33.171c-2.67-22.241-4.004-44.8-5.337-67.36q-1.717-29.739-2.416-59.67 11.311-10.611 22.56-21.478 14.233 13.662 28.85 27.07a1773 1773 0 0 1-3.178 54.523m88.393-57.89q21.988 25.8 41.94 53.252a394 394 0 0 1 18.746 27.96q4.45 7.244 7.753 14.616 1.717 3.813 2.67 7.371.381 1.906.381 3.177.128.508-.127.89c-1.906.953-7.371-1.017-11.502-3.177q-7.244-3.623-14.171-8.325a400 400 0 0 1-27.007-19.825 1144 1144 0 0 1-51.345-43.848q-25.737-22.877-50.647-46.707.19-12.39.19-24.783 23.322-.381 46.771-1.398 18.555 20.08 36.348 40.797m137.515-72.19q-7.626 2.543-15.887 4.132-16.395 3.24-33.108 5.084c-22.368 2.605-44.863 4.002-67.359 5.274q-34.315 2.097-68.82 2.796l-17.348-17.602q16.267-16.904 32.091-34.126 27.26 1.145 54.522 3.178 33.808 2.669 67.295 8.007 16.777 2.542 33.045 6.545 8.198 1.906 15.886 4.83 3.877 1.398 6.991 3.368c1.588.636 2.797 2.287 3.177 2.668 0 1.399-5.91 4.576-10.485 5.847"/><path fill="transparent" stroke="transparent" d="M720 0h560v560H720z"/></g></svg>